<?xml version="1.0" encoding="UTF-8"?>
<!DOCTYPE svg PUBLIC "-//W3C//DTD SVG 1.1//EN" "http://www.w3.org/Graphics/SVG/1.1/DTD/svg11.dtd">
<!-- Creator: CorelDRAW 2019 (64 Bit) -->
<svg xmlns="http://www.w3.org/2000/svg" xml:space="preserve" width="200px" height="60px" version="1.1" style="shape-rendering:geometricPrecision; text-rendering:geometricPrecision; image-rendering:optimizeQuality; fill-rule:evenodd; clip-rule:evenodd"
viewBox="0 0 200 60"
 xmlns:xlink="http://www.w3.org/1999/xlink">
 <defs>
  <style type="text/css">
   <![CDATA[
    .fil2 {fill:#585570}
    .fil3 {fill:#585570;fill-rule:nonzero}
    .fil0 {fill:#A9ABAE;fill-rule:nonzero}
    .fil1 {fill:url(#id0)}
   ]]>
  </style>
  <linearGradient id="id0" gradientUnits="userSpaceOnUse" x1="102.99" y1="22.49" x2="122.44" y2="8.77">
   <stop offset="0" style="stop-opacity:1; stop-color:#00AFEF"/>
   <stop offset="1" style="stop-opacity:1; stop-color:white"/>
  </linearGradient>
 </defs>
 <g id="Camada_x0020_1">
  <metadata id="CorelCorpID_0Corel-Layer"/>
  <g id="_1675969807104">
   <g id="_1675967355104">
    <path class="fil0" d="M107.47 25.67c-0.15,0.51 -0.41,0.99 -0.76,1.44 -0.35,0.45 -0.8,0.86 -1.32,1.22 -1.38,0.96 -3.28,1.55 -5.39,1.55 -1.03,0 -2.01,-0.14 -2.91,-0.4 -0.94,-0.27 -1.78,-0.66 -2.48,-1.15 -1.38,-0.95 -2.23,-2.27 -2.23,-3.73 0,-0.71 0.2,-1.39 0.57,-2.01 0.39,-0.65 0.96,-1.23 1.66,-1.72 1.06,-0.73 2.42,-1.24 3.94,-1.45l0.43 -0.06 0 1.03 -0.28 0.04c-0.59,0.09 -1.14,0.23 -1.65,0.42 -0.52,0.2 -0.99,0.45 -1.41,0.74 -1.11,0.77 -1.81,1.84 -1.81,3.01 0,0.58 0.17,1.14 0.47,1.64 0.31,0.52 0.77,0.99 1.34,1.38 1.12,0.77 2.66,1.25 4.36,1.25 0.84,0 1.63,-0.11 2.36,-0.32 0.75,-0.22 1.43,-0.53 2,-0.93 0.81,-0.55 1.39,-1.26 1.65,-2.06l0.07 -0.19 1.48 0 -0.09 0.3 0 0zm18.5 -0.04c-0.18,2.25 -0.96,4.38 -2.22,6.33 -1.31,2.02 -3.13,3.84 -5.36,5.38 -2.39,1.66 -5.26,2.99 -8.44,3.9 -3.07,0.88 -6.43,1.37 -9.95,1.37 -3.52,0 -6.88,-0.49 -9.94,-1.37 -3.19,-0.91 -6.06,-2.24 -8.45,-3.9 -2.4,-1.66 -4.33,-3.65 -5.65,-5.85 -1.27,-2.13 -1.97,-4.45 -1.97,-6.89 0,-2.43 0.7,-4.76 1.97,-6.88 1.32,-2.2 3.25,-4.19 5.65,-5.85 2.23,-1.54 4.87,-2.81 7.8,-3.71 2.83,-0.88 5.94,-1.42 9.19,-1.53l0.38 -0.02 0 1.01 -0.34 0.01c-3.07,0.12 -5.98,0.62 -8.65,1.45 -2.76,0.85 -5.24,2.05 -7.35,3.5 -2.27,1.57 -4.09,3.45 -5.33,5.52 -1.2,2 -1.86,4.2 -1.86,6.5 0,2.31 0.66,4.5 1.86,6.5 1.24,2.08 3.06,3.96 5.33,5.52 2.26,1.57 4.97,2.83 7.97,3.69 2.89,0.83 6.06,1.29 9.39,1.29 3.33,0 6.5,-0.46 9.39,-1.29 3.01,-0.86 5.71,-2.12 7.98,-3.69 2.09,-1.45 3.81,-3.16 5.04,-5.06 1.19,-1.83 1.93,-3.84 2.11,-5.95l0.02 -0.24 1.45 0 -0.02 0.26 0 0zm-4.61 0.01c-0.18,1.81 -0.83,3.53 -1.86,5.1 -1.08,1.63 -2.56,3.1 -4.36,4.35 -1.97,1.36 -4.33,2.46 -6.95,3.21 -2.52,0.73 -5.29,1.13 -8.19,1.13 -2.9,0 -5.66,-0.4 -8.19,-1.13 -2.62,-0.75 -4.98,-1.85 -6.95,-3.21 -3.88,-2.69 -6.27,-6.39 -6.27,-10.49 0,-2 0.58,-3.92 1.62,-5.66 1.09,-1.82 2.68,-3.45 4.65,-4.82 1.81,-1.25 3.94,-2.28 6.31,-3.02 2.29,-0.72 4.79,-1.17 7.43,-1.29l0.38 -0.01 0 1 -0.34 0.02c-2.44,0.11 -4.77,0.53 -6.89,1.2 -2.2,0.69 -4.18,1.65 -5.86,2.81 -1.84,1.28 -3.33,2.8 -4.34,4.49 -0.97,1.63 -1.51,3.41 -1.51,5.28 0,1.88 0.54,3.66 1.51,5.29 1.01,1.69 2.5,3.21 4.34,4.48 3.61,2.5 8.6,4.05 14.11,4.05 2.71,0 5.29,-0.37 7.63,-1.05 2.45,-0.7 4.64,-1.72 6.49,-3 1.67,-1.16 3.05,-2.52 4.04,-4.03 0.97,-1.46 1.58,-3.06 1.75,-4.74l0.02 -0.23 1.46 0 -0.03 0.27 0 0zm-4.61 0c-0.17,1.38 -0.7,2.69 -1.51,3.89 -0.83,1.24 -1.97,2.35 -3.35,3.3 -1.54,1.08 -3.4,1.94 -5.46,2.53 -1.98,0.57 -4.15,0.89 -6.43,0.89 -2.27,0 -4.45,-0.32 -6.43,-0.89 -2.06,-0.59 -3.91,-1.45 -5.46,-2.53 -1.55,-1.07 -2.8,-2.35 -3.65,-3.78 -0.82,-1.37 -1.27,-2.87 -1.27,-4.45 0,-1.57 0.45,-3.07 1.27,-4.45 0.85,-1.42 2.1,-2.71 3.65,-3.78 1.39,-0.96 3.01,-1.75 4.82,-2.33 1.74,-0.56 3.65,-0.92 5.66,-1.04l0.39 -0.02 0 1.01 -0.33 0.02c-1.82,0.11 -3.56,0.44 -5.14,0.95 -1.63,0.53 -3.11,1.25 -4.37,2.13 -1.42,0.98 -2.56,2.15 -3.34,3.45 -0.74,1.25 -1.16,2.62 -1.16,4.06 0,1.45 0.42,2.82 1.16,4.07 0.78,1.3 1.92,2.47 3.34,3.45 1.42,0.98 3.11,1.77 4.99,2.31 1.81,0.52 3.79,0.81 5.87,0.81 2.08,0 4.07,-0.29 5.88,-0.81 1.87,-0.54 3.56,-1.33 4.98,-2.31 1.25,-0.87 2.29,-1.88 3.05,-3 0.74,-1.08 1.22,-2.27 1.39,-3.52l0.03 -0.23 1.46 0 -0.04 0.27 0 0zm-4.62 0.01c-0.17,0.94 -0.56,1.84 -1.14,2.66 -0.6,0.85 -1.4,1.62 -2.35,2.27 -2.21,1.54 -5.27,2.48 -8.64,2.48 -1.65,0 -3.23,-0.23 -4.67,-0.64 -1.5,-0.43 -2.84,-1.06 -3.97,-1.84 -1.12,-0.77 -2.03,-1.71 -2.65,-2.74 -0.6,-1 -0.93,-2.09 -0.93,-3.24 0,-1.14 0.33,-2.23 0.93,-3.23 0.62,-1.04 1.53,-1.97 2.65,-2.75 0.96,-0.66 2.08,-1.22 3.32,-1.63 1.2,-0.4 2.52,-0.68 3.9,-0.79l0.4 -0.03 0 1.01 -0.31 0.03c-1.21,0.11 -2.35,0.34 -3.39,0.7 -1.08,0.36 -2.05,0.84 -2.89,1.43 -0.99,0.68 -1.79,1.5 -2.34,2.41 -0.52,0.88 -0.81,1.84 -0.81,2.85 0,1.01 0.29,1.98 0.81,2.85 0.55,0.91 1.35,1.73 2.34,2.42 1.95,1.35 4.64,2.19 7.61,2.19 1.46,0 2.85,-0.21 4.12,-0.57 1.32,-0.37 2.5,-0.93 3.49,-1.62 0.83,-0.57 1.52,-1.24 2.05,-1.97 0.51,-0.71 0.86,-1.49 1.01,-2.31l0.05 -0.22 1.46 0 -0.05 0.28 0 0z"/>
    <path class="fil1" d="M100 24.6l26.07 0c0,-9.96 -11.67,-18.04 -26.07,-18.04l0 18.04z"/>
    <path class="fil2" d="M135.81 29.54c2.11,-9.74 -4.22,-19.43 -16.17,-24.77 -11.96,-5.34 -27.32,-5.34 -39.27,0 -11.96,5.34 -18.29,15.03 -16.18,24.77 -0.77,-9.19 5.89,-17.93 17.28,-22.68 11.4,-4.76 25.66,-4.76 37.06,0 11.39,4.75 18.05,13.49 17.28,22.68l0 0z"/>
    <g>
     <path class="fil3" d="M29.16 56.43l4.5 0 0 -3.32 0.74 0 3.54 3.32 4.51 0 0 -0.71 -3.42 -2.92c1.62,-0.49 2.66,-1.48 2.66,-2.72 0,-2.19 -2.13,-3.29 -4.97,-3.29l-7.56 0 0 9.64 0 0zm4.5 -6.95l2.3 0c0.77,0 1.1,0.4 1.1,0.73 0,0.36 -0.33,0.74 -1.1,0.74l-2.3 0 0 -1.47zm11.33 2.25c0.72,-0.15 2.13,-0.41 3.27,-0.41 0.85,0 1.19,0.13 1.19,0.54l0 0.06c-0.34,-0.03 -0.74,-0.05 -1.12,-0.05 -2.95,0 -4.88,0.93 -4.88,2.53 0,1.3 1.09,2.16 3.18,2.16 1.27,0 2.17,-0.35 2.82,-0.77l0 0.64 4.32 0 0 -4.3c0,-2.1 -1.08,-3.25 -5.01,-3.25 -1.6,0 -3.38,0.29 -4.51,0.56l0.74 2.29 0 0zm2.72 2.31c0,-0.49 0.68,-0.69 1.33,-0.69 0.15,0 0.27,0.01 0.41,0.03l0 1.09c-0.26,0.1 -0.55,0.17 -0.86,0.17 -0.55,0 -0.88,-0.17 -0.88,-0.6l0 0zm7.78 -1.33c0,2.24 1.97,3.85 4.8,3.85 1.23,0 2.1,-0.32 2.74,-0.79l0 0.66 4.5 0 0 -10.07 -4.5 0 0 3.3c-0.68,-0.45 -1.6,-0.78 -2.74,-0.78 -2.83,0 -4.8,1.59 -4.8,3.83l0 0zm4.59 0c0,-0.72 0.62,-1.13 1.54,-1.13 0.41,0 0.96,0.05 1.41,0.28l0 1.73c-0.35,0.17 -0.96,0.28 -1.41,0.28 -0.95,0 -1.54,-0.42 -1.54,-1.16l0 0 0 0zm10.77 -0.98c0.72,-0.15 2.13,-0.41 3.28,-0.41 0.84,0 1.19,0.13 1.19,0.54l0 0.06c-0.35,-0.03 -0.74,-0.05 -1.13,-0.05 -2.95,0 -4.87,0.93 -4.87,2.53 0,1.3 1.08,2.16 3.17,2.16 1.27,0 2.17,-0.35 2.83,-0.77l0 0.64 4.32 0 0 -4.3c0,-2.1 -1.09,-3.25 -5.02,-3.25 -1.6,0 -3.38,0.29 -4.51,0.56l0.74 2.29 0 0zm2.73 2.31c0,-0.49 0.67,-0.69 1.33,-0.69 0.14,0 0.26,0.01 0.41,0.03l0 1.09c-0.27,0.1 -0.56,0.17 -0.86,0.17 -0.56,0 -0.88,-0.17 -0.88,-0.6l0 0zm8.35 2.39l4.51 0 0 -3.88c0.2,-0.48 0.94,-0.8 1.96,-0.8 0.78,0 1.42,0.11 1.95,0.24l0.96 -2.82c-0.59,-0.2 -1.29,-0.29 -1.84,-0.29 -1.5,0 -2.4,0.54 -3.03,1.33l0 -1.2 -4.51 0 0 7.42 0 0z"/>
     <path class="fil0" d="M93.78 55.73c0.88,0.35 2.89,0.83 4.9,0.83 3.3,0 5.67,-1.17 5.67,-2.96 0,-1.36 -1.31,-2.12 -3.77,-2.58l-2.7 -0.48c-1.27,-0.24 -1.93,-0.57 -1.93,-1.23 0,-0.72 0.92,-1.29 3.1,-1.29 1.55,0 3.36,0.35 4.34,0.76l0.61 -1.36c-1.04,-0.38 -2.93,-0.76 -4.87,-0.76 -3.69,0 -5.39,1.26 -5.39,2.78 0,1.26 1.15,2.12 3.48,2.5l2.5 0.43c1.7,0.28 2.42,0.67 2.42,1.35 0,0.95 -1.39,1.49 -3.42,1.49 -1.82,0 -3.48,-0.49 -4.43,-0.9l-0.51 1.42 0 0zm21.14 -6.72l-3.36 5.8 -3.61 -5.8 -2.35 0 5.01 7.29 -0.28 0.48c-0.49,0.78 -1.01,1.19 -2.13,1.19 -0.88,0 -1.58,-0.23 -2.11,-0.45l-0.35 1.2c0.53,0.24 1.42,0.51 2.46,0.51 2.21,0 3.23,-0.86 4.2,-2.51l4.67 -7.71 -2.15 0 0 0zm12.08 0.41c-0.82,-0.27 -2.4,-0.54 -3.77,-0.54 -2.82,0 -4.36,0.94 -4.36,2.33 0,1.1 0.9,1.66 2.95,2l1.68 0.28c1.08,0.18 1.72,0.44 1.72,0.89 0,0.61 -0.96,0.95 -2.38,0.95 -1.39,0 -2.68,-0.35 -3.56,-0.68l-0.41 1.28c0.8,0.28 2.23,0.63 4.05,0.63 2.71,0 4.45,-0.9 4.45,-2.28 0,-1.04 -0.9,-1.71 -3.07,-2.07l-1.77 -0.29c-1.12,-0.2 -1.55,-0.31 -1.55,-0.83 0,-0.63 0.75,-0.96 2.09,-0.96 1.16,0 2.45,0.26 3.35,0.57l0.58 -1.28 0 0zm4.48 -2.29l-0.24 1.88 -2.01 0 0 1.16 2.01 0 0 3.97c0,1.59 1.23,2.42 3.21,2.42 1.48,0 2.75,-0.29 3.71,-0.7l-0.7 -1.15c-0.59,0.3 -1.55,0.57 -2.37,0.57 -1.11,0 -1.72,-0.46 -1.72,-1.42l0 -3.69 4.18 0 0 -1.16 -4.18 0 0 -1.88 -1.89 0 0 0zm17.68 7.42c-0.82,0.43 -2.07,0.82 -3.55,0.82 -2.33,0 -3.46,-0.87 -3.66,-2.16l7.96 0c0.13,-0.27 0.23,-0.87 0.23,-1.31 0,-1.7 -1.51,-3.09 -4.77,-3.09 -3.44,0 -5.61,1.75 -5.61,3.93 0,2.15 1.76,3.88 5.79,3.88 1.8,0 3.34,-0.38 4.45,-1l-0.84 -1.07zm-1.11 -2.49l-6.06 0c0.16,-1.08 1.33,-2.01 3.34,-2.01 1.92,0 2.76,0.76 2.76,1.61 0,0.13 -0.02,0.28 -0.04,0.4zm5.08 -3.05l0 7.42 2.13 0 0 -4.64c0.39,-0.81 1.35,-1.55 3.05,-1.55 1.88,0 2.64,0.87 2.64,2.13l0 4.06 2.13 0 0 -4.65c0.35,-0.81 1.31,-1.54 2.99,-1.54 1.89,0 2.64,0.88 2.64,2.14l0 4.05 2.13 0 0 -4.27c0,-1.84 -1.19,-3.28 -4.07,-3.28 -1.99,0 -3.36,0.7 -4.08,1.49 -0.59,-0.93 -1.68,-1.5 -3.71,-1.5 -1.71,0 -2.94,0.51 -3.72,1.26l0 -1.12 -2.13 0 0 0z"/>
    </g>
   </g>
  </g>
 </g>
</svg>
